<?xml version="1.0" encoding="UTF-8" standalone="no"?>
<!DOCTYPE svg PUBLIC "-//W3C//DTD SVG 1.1//EN" "http://www.w3.org/Graphics/SVG/1.1/DTD/svg11.dtd">
<svg width="100%" height="100%" viewBox="0 0 240 240" version="1.1" xmlns="http://www.w3.org/2000/svg" xmlns:xlink="http://www.w3.org/1999/xlink" xml:space="preserve" xmlns:serif="http://www.serif.com/" style="fill-rule:evenodd;clip-rule:evenodd;stroke-linejoin:round;stroke-miterlimit:2;">
    <g transform="matrix(1,0,0,1,-642,-17)">
        <g id="Artboard7" transform="matrix(3.69231,0,0,8.88889,-930.923,-1165.22)">
            <rect x="426" y="133" width="65" height="27" style="fill:rgb(72,132,122);"/>
            <g transform="matrix(2.63831,-0.358094,0.362999,0.461461,-762.799,232.784)">
                <rect x="434" y="137" width="19" height="10" style="fill:rgb(217,77,77);"/>
            </g>
            <g transform="matrix(2.02102,-0.917412,0.862215,0.327735,-558.365,508.962)">
                <rect x="434" y="137" width="19" height="10" style="fill:rgb(83,107,121);"/>
            </g>
            <g transform="matrix(1.33274,0,0,0.553602,-152.759,62.0743)">
                <text x="443.669px" y="143.759px" style="font-family:'RetrokingRegular', 'Retroking';font-size:12px;fill:rgb(242,233,226);">f<tspan x="447.209px 452.573px " y="143.759px 143.759px ">ra</tspan>m</text>
                <text x="443.669px" y="155.759px" style="font-family:'RetrokingRegular', 'Retroking';font-size:12px;fill:rgb(235,165,56);">tidens</text>
                <text x="443.669px" y="167.759px" style="font-family:'RetrokingRegular', 'Retroking';font-size:12px;fill:rgb(242,233,226);">b<tspan x="450.005px 456.401px " y="167.759px 167.759px ">ol</tspan>ag</text>
            </g>
            <g transform="matrix(1.33619,0,0,0.547223,-217.475,76.4234)">
                <g id="Layer1">
                    <path d="M492.012,124C492.012,123.993 492.006,123.988 492,123.988L491,123.988C490.994,123.988 490.988,123.993 490.988,124L490.988,125C490.988,125.007 490.994,125.012 491,125.012L492,125.012C492.006,125.012 492.012,125.007 492.012,125L492.012,124Z" style="fill:rgb(235,165,56);"/>
                </g>
            </g>
        </g>
    </g>
</svg>
